<svg width="83" height="82" viewBox="0 0 83 82" fill="none" xmlns="http://www.w3.org/2000/svg">
<g clip-path="url(#clip0_230_22)">
<path d="M51.6463 56.3061C49.2699 58.2793 47.7358 61.0297 44.5153 63.9898C41.2764 67.0186 36.3264 70.2138 30.2806 70.873C24.2349 71.5322 17.075 69.724 11.8518 65.4203C6.62864 61.1167 3.28372 54.2652 5.25495 48.8015C7.22617 43.3377 14.4643 39.1749 19.6904 35.3552C24.8305 31.586 27.8817 28.1761 32.1574 23.0357C36.4915 17.9477 42.0776 11.0264 48.5376 9.63267C54.9975 8.23896 62.494 12.3062 68.4277 17.609C74.3613 22.9117 78.7322 29.4499 77.1423 35.3835C75.5524 41.317 68.0602 46.6984 62.6586 49.9564C57.2569 53.2144 54.0135 54.3671 51.6463 56.3061Z" fill="#FFD18D"/>
</g>
<defs>
<clipPath id="clip0_230_22">
<rect width="67" height="66" fill="white" transform="translate(82.0461 17.082) rotate(105)"/>
</clipPath>
</defs>
</svg>
