<svg width="67" height="66" viewBox="0 0 67 66" fill="none" xmlns="http://www.w3.org/2000/svg">
<path d="M45.7556 19.2121C48.2767 20.9968 51.3303 21.7667 55.0232 24.1113C58.787 26.456 63.1545 30.4104 65.356 36.0795C67.5575 41.7487 67.664 49.1325 64.8589 55.2916C62.0537 61.4507 56.3015 66.4549 50.5137 65.965C44.7259 65.4751 38.8315 59.561 33.7894 55.5016C28.8183 51.5122 24.7349 49.4475 18.663 46.6479C12.6267 43.7784 4.49533 40.1739 1.47715 34.2948C-1.54103 28.4157 0.447418 20.122 4.03372 13.018C7.62003 5.9141 12.8042 0 18.9471 0C25.09 0 32.2271 5.84411 36.7721 10.2185C41.3171 14.5928 43.27 17.4274 45.7556 19.2121Z" fill="#FFD0C6"/>
</svg>
