<svg width="80" height="80" viewBox="0 0 80 80" fill="none" xmlns="http://www.w3.org/2000/svg">
<g clip-path="url(#clip0_230_24)">
<path d="M55.0769 34.0548C56.0714 36.5077 57.9097 38.3738 59.4893 41.7527C61.1198 45.1608 62.4502 50.0951 61.4477 55.5007C60.4452 60.9063 57.1606 66.8126 52.3466 70.5499C47.5326 74.2873 41.1319 75.8967 37.2065 73.1295C33.2812 70.3622 31.7484 63.2447 29.9822 57.9499C28.2351 52.7398 26.2481 49.4227 23.1704 44.705C20.15 39.9463 15.9626 33.7433 16.4754 27.8354C16.9881 21.9274 22.1884 16.1597 27.9924 11.9932C33.7963 7.82664 40.204 5.26134 44.6069 7.78551C49.0097 10.3097 51.4651 17.8823 52.7316 23.2229C53.9982 28.5635 54.1077 31.6165 55.0769 34.0548Z" fill="#93C9B9"/>
</g>
<defs>
<clipPath id="clip0_230_24">
<rect width="55.3537" height="60.4014" fill="white" transform="translate(31.0267) rotate(29.8257)"/>
</clipPath>
</defs>
</svg>
