<?xml version="1.0" encoding="utf-8"?>
<!-- Generator: Adobe Illustrator 26.2.0, SVG Export Plug-In . SVG Version: 6.00 Build 0)  -->
<svg version="1.1" id="a3e7dddb-df2d-4005-b421-42fdae77cca2"
	 xmlns="http://www.w3.org/2000/svg" xmlns:xlink="http://www.w3.org/1999/xlink" x="0px" y="0px" viewBox="0 0 48 48"
	 style="enable-background:new 0 0 48 48;" xml:space="preserve">
<style type="text/css">
	.st0{fill:none;}
</style>
<path class="st0" d="M0,0h48v48H0V0z"/>
<g id="e6175431-8037-46ef-bf36-279c23c4a9a9">
	<path d="M8,44h32c2.2,0,4-1.8,4-4V16c0-1.1-0.9-2-2-2h-6.2c-1.1-6.5-7.4-10.9-13.9-9.7C17,5.1,13.1,9,12.2,14H6c-1.1,0-2,0.9-2,2
		v24C4,42.2,5.8,44,8,44z M24,8c3.6,0,6.8,2.5,7.7,6H16.3C17.2,10.5,20.4,8,24,8z M12,18v2c0,1.1,0.9,2,2,2l0,0c1.1,0,2-0.9,2-2v-2
		h16v2c0,1.1,0.9,2,2,2l0,0c1.1,0,2-0.9,2-2v-2h4v22H8V18H12z"/>
</g>
</svg>
