<svg id="bfd5bc0a-764e-4e57-b277-e240f287ae4f" data-name="Laag 1" xmlns="http://www.w3.org/2000/svg" width="945.92" height="150.99" viewBox="0 0 945.92 150.99"><defs><style>.e9ce16dc-be3d-4378-9f8b-4f9bcd3a414c{fill:#4f7dfe;}</style></defs><title>logo_blue</title><path class="e9ce16dc-be3d-4378-9f8b-4f9bcd3a414c" d="M7.64,73.59l-1-.41q.39-2.57-1.36-7A41.68,41.68,0,0,0,0,57.07l.59-1.51L9.1,58.9l3.42-8.7,3.73,1.46-3.42,8.71L20,63.16q2.91,1.23,6.09,2.47l5.33,2.09a4.62,4.62,0,0,0,3.15.45,3.84,3.84,0,0,0,1.74-2.31,4.83,4.83,0,0,0,.27-1.17,7.38,7.38,0,0,0,0-1.63,8.32,8.32,0,0,0-.51-2,12,12,0,0,0-1.22-2.29l1.11-.32A14.37,14.37,0,0,1,38.5,62.7a14.88,14.88,0,0,1,.94,3.87,12.94,12.94,0,0,1-.09,3.22,12.69,12.69,0,0,1-.59,2.26,16.46,16.46,0,0,1-2,3.76,5.13,5.13,0,0,1-2.48,1.9,7,7,0,0,1-3.42.16,23.72,23.72,0,0,1-4.81-1.43L9.13,69.79Z" transform="translate(0 0)"/><path class="e9ce16dc-be3d-4378-9f8b-4f9bcd3a414c" d="M8.42,35.74,13.09,22.8l1.32-1.46,14.5,13.11a13.43,13.43,0,0,1,.57-5.61,16,16,0,0,1,3.66-6.31c1.85-2.05,3.89-2.85,6.1-2.4a15.64,15.64,0,0,1,7,4l6.37,5.75a22.6,22.6,0,0,0,6.42,4.33q2.91,1.17,4.35-.1l.52-.47a1.21,1.21,0,0,0,.31.18l.73.66.57.52L39.61,63.72,38,62.31l.37-.52c.75-1,.63-2.48-.34-4.33a22.39,22.39,0,0,0-5-6L21.58,41.09q-2.45-2.22-4.08-3.45a14.52,14.52,0,0,0-2.93-1.79,5.24,5.24,0,0,0-2.41-.48,10.55,10.55,0,0,0-2.49.55L9,36.15,8.83,36A1.12,1.12,0,0,1,8.42,35.74ZM39.71,44.2a22,22,0,0,0,6.44,4.31q3,1.14,4.33-.07L51,48l.14-.15.18-.31q1-1.65-.39-4.39A22,22,0,0,0,46,37.27L40.4,32.22a11.69,11.69,0,0,0-2.14-1.51,10,10,0,0,0-2.42-.95,5.58,5.58,0,0,0-2.29-.08,3.16,3.16,0,0,0-1.79,1,4.16,4.16,0,0,0-.91,2.11,9.83,9.83,0,0,0,.2,3.6Z" transform="translate(0 0)"/><path class="e9ce16dc-be3d-4378-9f8b-4f9bcd3a414c" d="M56.31,25.17a21.3,21.3,0,0,1-2-7.27A16.25,16.25,0,0,1,55,11.29a15.14,15.14,0,0,1,3.43-5.6,19.91,19.91,0,0,1,6-4.21A15,15,0,0,1,70.4,0a12.55,12.55,0,0,1,5.5,1.08,15.14,15.14,0,0,1,4.82,3.49,21.57,21.57,0,0,1,3.79,5.72l-19,9.24A18.24,18.24,0,0,0,68.47,23a9.86,9.86,0,0,0,3.64,2.14,10,10,0,0,0,4.4.35,14.39,14.39,0,0,0,5.16-1.82A7.59,7.59,0,0,0,84.05,21a13.71,13.71,0,0,0,1.66-5l1.44.41a16.47,16.47,0,0,1-1.09,5.4,19.8,19.8,0,0,1-2.43,4.43,17.75,17.75,0,0,1-3.21,3.36A16.92,16.92,0,0,1,77,31.79a19.39,19.39,0,0,1-6.43,1.85,14.8,14.8,0,0,1-5.81-.55,12.83,12.83,0,0,1-4.86-2.85A16,16,0,0,1,56.31,25.17Zm8.09-7.59,7.39-3.45a4.33,4.33,0,0,0,2.12-2,4.54,4.54,0,0,0,.35-2.57,6.53,6.53,0,0,0-1-2.62,6.76,6.76,0,0,0-2.1-2.09,7.15,7.15,0,0,0-2.8-1,5.56,5.56,0,0,0-3.13.53c-1.78.83-2.76,2.47-2.92,4.89A16.74,16.74,0,0,0,64.4,17.58Z" transform="translate(0 0)"/><path class="e9ce16dc-be3d-4378-9f8b-4f9bcd3a414c" d="M117.14,52.52q16.65,0,27,5.62t11.14,15.4a13.28,13.28,0,0,1-3.54,9.68,12.48,12.48,0,0,1-9.37,3.65,13.63,13.63,0,0,1-10.2-4.06,17.32,17.32,0,0,1-4.58-10.93A10.82,10.82,0,0,0,123.49,64,14.67,14.67,0,0,0,114,61.05q-9.58,0-15.2,9T93.2,94.15a54.79,54.79,0,0,0,2.29,15.93,34,34,0,0,0,7.08,13,31.21,31.21,0,0,0,12.17,8.33,38.41,38.41,0,0,0,17.39,2.08,22.28,22.28,0,0,0,4.58-1.14,24.89,24.89,0,0,0,5.52-2.82,33.21,33.21,0,0,0,5.51-4.68,21.87,21.87,0,0,0,4.37-6.77l3.34,2.92A44.59,44.59,0,0,1,146,134.12,54.78,54.78,0,0,1,133.69,143a56.28,56.28,0,0,1-13.12,5,51.36,51.36,0,0,1-11.76,1.56,57.26,57.26,0,0,1-19.36-3.12,42.09,42.09,0,0,1-14.78-8.75,38.2,38.2,0,0,1-9.37-13.74A47.31,47.31,0,0,1,62,105.81a59.82,59.82,0,0,1,3.85-22.07A47.31,47.31,0,0,1,76.85,67,48.88,48.88,0,0,1,94.24,56.26,66,66,0,0,1,117.14,52.52Z" transform="translate(0 0)"/><path class="e9ce16dc-be3d-4378-9f8b-4f9bcd3a414c" d="M161.69,125q0-9.15,5.62-14.88a39.29,39.29,0,0,1,13.74-9,77.3,77.3,0,0,1,17.18-4.58A138.32,138.32,0,0,1,214.15,95V78.75q0-7.92-2-12.7t-5.52-4.79q-6.87,0-10,6.77T195,85.83c-2.78.69-5.31,1.25-7.6,1.66a38.53,38.53,0,0,1-7,.63,39.19,39.19,0,0,1-6.87-.63c-2.36-.41-5.07-1-8.12-1.66a22.46,22.46,0,0,1,2.08-13.54A28.11,28.11,0,0,1,177,61.68a48.85,48.85,0,0,1,15.62-6.77,72.7,72.7,0,0,1,20.71-2q14.56.42,23.21,9.06t8.64,23.63v36a28.74,28.74,0,0,0,1.67,10.73q1.66,4,6.45,4a11.6,11.6,0,0,0,5.62-1.14A7.4,7.4,0,0,0,262,132l3.12,4a27.82,27.82,0,0,1-10.83,10.93q-7.08,4.06-21,4.06a20.93,20.93,0,0,1-10.83-2.71,13.75,13.75,0,0,1-6.24-7.49,66.36,66.36,0,0,1-12.91,6.35A44.78,44.78,0,0,1,187.51,150a26.48,26.48,0,0,1-10.62-2.08,24.53,24.53,0,0,1-13.33-13.54A24.67,24.67,0,0,1,161.69,125Zm29.36-4.78q0,7.29,4.47,11.13a15.28,15.28,0,0,0,18.84,1.15l-.21-31.64a33.57,33.57,0,0,0-8.43,1,21.92,21.92,0,0,0-7.39,3.43,17.84,17.84,0,0,0-5.31,6A18.31,18.31,0,0,0,191.05,120.18Z" transform="translate(0 0)"/><path class="e9ce16dc-be3d-4378-9f8b-4f9bcd3a414c" d="M267,148.49V146.2a11.89,11.89,0,0,1,.21-2.91v-1l2.08-.2q5.83-.63,9-9.89t3.12-23.63q0-9.78-.42-15.93a38.94,38.94,0,0,0-1.77-10,16.39,16.39,0,0,0-3.74-6.25,23.65,23.65,0,0,0-6.15-4.27l-2.08-1v-.62A3.55,3.55,0,0,1,267,69l37.69-15.4h5.83V67.92Q314.71,62.3,324,57.41t22-4.89q12.29,0,17.38,8.64t5.1,23.42V110q0,14,3.23,22.69T380.5,142l2.08.2a3.45,3.45,0,0,0,.21,1v5.2H326.37v-6.25l1.25-.2q5.61-1,8.53-9.58T339.07,110V87.7a34.47,34.47,0,0,0-.94-7.91,28.28,28.28,0,0,0-2.71-7.18,16.18,16.18,0,0,0-4.37-5.21,9.24,9.24,0,0,0-5.72-2,12.67,12.67,0,0,0-6.87,2.5q-3.75,2.51-7.91,8.54V110q0,14,3.22,22.69t8.85,9.37l1.67.2v6.25Z" transform="translate(0 0)"/><path class="e9ce16dc-be3d-4378-9f8b-4f9bcd3a414c" d="M381.33,107.69a69.54,69.54,0,0,1,3.54-22.9A49.39,49.39,0,0,1,395,67.4a43.94,43.94,0,0,1,15.82-11,53.41,53.41,0,0,1,20.71-3.85A23.93,23.93,0,0,1,439.83,54a32.64,32.64,0,0,1,7.49,4q-.21-7.69-.72-12.81a29.83,29.83,0,0,0-1.88-8.32,14.84,14.84,0,0,0-3.64-5.31,28.43,28.43,0,0,0-5.83-4l-2.08-1v-.62a3.55,3.55,0,0,1-.21-1.46L470.64,9h5.83V93.53q0,9.57.52,15.72a43.24,43.24,0,0,0,1.87,10.09,15.5,15.5,0,0,0,3.75,6.25,29.66,29.66,0,0,0,6.14,4.37l1.88,1a1.61,1.61,0,0,0,.21.63v1.45l-37.69,15.41h-5.83V134.33a49.33,49.33,0,0,1-13.22,11.14,28.07,28.07,0,0,1-13.84,4.06q-18.11,0-28.52-11.24T381.33,107.69Zm55,23.31a25.13,25.13,0,0,0,6.35-.73,19.44,19.44,0,0,0,4.68-1.77V70.42a22,22,0,0,0-7.39-7A19.26,19.26,0,0,0,430,60.84q-8.32,0-13.21,9.58t-4.9,25.82q0,16,6.56,25.39A20.62,20.62,0,0,0,436.29,131Z" transform="translate(0 0)"/><path class="e9ce16dc-be3d-4378-9f8b-4f9bcd3a414c" d="M492.5,146.2a11.89,11.89,0,0,1,.21-2.91v-1l1.87-.2q5.63-.63,8.95-9.37T506.87,110V64.17q0-9.78-.52-15.92a43.39,43.39,0,0,0-1.88-10.1,15.24,15.24,0,0,0-3.75-6.24,29.51,29.51,0,0,0-6.14-4.38l-1.87-1v-.62a3.55,3.55,0,0,1-.21-1.46L530.39,9h5.83V110q0,14,3.33,22.69T548.3,142l2.08.2a3.45,3.45,0,0,0,.21,1v5.2H492.5Z" transform="translate(0 0)"/><path class="e9ce16dc-be3d-4378-9f8b-4f9bcd3a414c" d="M549.75,105.81a62.91,62.91,0,0,1,3.65-22.07A48.35,48.35,0,0,1,563.7,67a44.65,44.65,0,0,1,16.24-10.72,58.36,58.36,0,0,1,21.44-3.74A44,44,0,0,1,619.08,56a37.12,37.12,0,0,1,13.43,9.79A44.74,44.74,0,0,1,641,81.14a63.36,63.36,0,0,1,3,20.09l-62.46,1a55.81,55.81,0,0,0,3.54,12.91,29.21,29.21,0,0,0,7.08,10.31,29.9,29.9,0,0,0,11.35,6.45,43.12,43.12,0,0,0,16.13,1.56q4.17-.42,9.68-4.06t10.73-11.35l3.33,2.92a48,48,0,0,1-9.68,13.11A57.05,57.05,0,0,1,621.68,143a53.11,53.11,0,0,1-12.8,5A50.87,50.87,0,0,1,597,149.53a57.93,57.93,0,0,1-19.57-3.12,43.19,43.19,0,0,1-14.88-8.75,37.59,37.59,0,0,1-9.48-13.74A47.31,47.31,0,0,1,549.75,105.81ZM581,95.61h24.15a13,13,0,0,0,8.22-2.81,13.41,13.41,0,0,0,4.17-6.45A19.67,19.67,0,0,0,618,78a20.41,20.41,0,0,0-9.27-14.47,16.22,16.22,0,0,0-9-2.5q-8.75,0-14,9.47T581,95.61Z" transform="translate(0 0)"/><path class="e9ce16dc-be3d-4378-9f8b-4f9bcd3a414c" d="M747.11,52.52q16.67,0,27,5.62t11.14,15.4a13.28,13.28,0,0,1-3.54,9.68,12.46,12.46,0,0,1-9.36,3.65,13.66,13.66,0,0,1-10.21-4.06,17.42,17.42,0,0,1-4.58-10.93A10.82,10.82,0,0,0,753.46,64,14.65,14.65,0,0,0,744,61.05q-9.57,0-15.2,9t-5.62,24.15a54.79,54.79,0,0,0,2.29,15.93,34.3,34.3,0,0,0,7.08,13,31.17,31.17,0,0,0,12.18,8.33,38.36,38.36,0,0,0,17.38,2.08,22.13,22.13,0,0,0,4.58-1.14,24.46,24.46,0,0,0,5.52-2.82,33.67,33.67,0,0,0,5.52-4.68,21.87,21.87,0,0,0,4.37-6.77l3.33,2.92A44.74,44.74,0,0,1,776,134.12,54.78,54.78,0,0,1,763.67,143a56.61,56.61,0,0,1-13.12,5,51.43,51.43,0,0,1-11.76,1.56,57.22,57.22,0,0,1-19.36-3.12,42.22,42.22,0,0,1-14.79-8.75,38.18,38.18,0,0,1-9.36-13.74,47.12,47.12,0,0,1-3.34-18.11,59.82,59.82,0,0,1,3.86-22.07,47,47,0,0,1,11-16.76,48.84,48.84,0,0,1,17.38-10.72A66,66,0,0,1,747.11,52.52Z" transform="translate(0 0)"/><path class="e9ce16dc-be3d-4378-9f8b-4f9bcd3a414c" d="M791,101a52.55,52.55,0,0,1,3.65-20,42,42,0,0,1,10.51-15.3A47.14,47.14,0,0,1,821.85,56a65.71,65.71,0,0,1,21.86-3.43A64.1,64.1,0,0,1,865.26,56a47.32,47.32,0,0,1,16.55,9.79A42,42,0,0,1,892.32,81,52.55,52.55,0,0,1,896,101a52.57,52.57,0,0,1-3.65,20,42,42,0,0,1-10.51,15.3,47.32,47.32,0,0,1-16.55,9.79,64.1,64.1,0,0,1-21.55,3.43,65.71,65.71,0,0,1-21.86-3.43,47.14,47.14,0,0,1-16.65-9.79A42,42,0,0,1,794.69,121,52.57,52.57,0,0,1,791,101Zm32.06,0q0,19.16,5.62,30.4t15,11.24q9.38,0,15-11.24t5.62-30.4q0-19.14-5.62-30.39t-15-11.24q-9.36,0-15,11.24T823.1,101Z" transform="translate(0 0)"/><path class="e9ce16dc-be3d-4378-9f8b-4f9bcd3a414c" d="M927.86,100.25c-1.34.46.16,4.38-2.87,10.2-1.78,3.44-3.16,3.75-6.16,7.67s-6.26,8.16-6.58,13.84a17.17,17.17,0,0,0,5,13.38,16,16,0,0,0,9.39,4.15,19.36,19.36,0,0,0,16.85-8C953.13,127.07,931.61,99,927.86,100.25Z" transform="translate(0 0)"/></svg>